<svg width="294" height="225" viewBox="0 0 294 225" fill="none" xmlns="http://www.w3.org/2000/svg">
<g filter="url(#filter0_f_1180_230)">
<ellipse cx="146.999" cy="208.597" rx="138.484" ry="7.40323" fill="#DBDBDB"/>
</g>
<path d="M152.768 191.932C183.683 191.932 208.744 166.87 208.744 135.955C208.744 105.04 183.683 79.9788 152.768 79.9788C121.853 79.9788 96.791 105.04 96.791 135.955C96.791 166.87 121.853 191.932 152.768 191.932Z" fill="white"/>
<path d="M225.928 210.031C242.937 210.031 256.725 196.242 256.725 179.234C256.725 162.225 242.937 148.437 225.928 148.437C208.919 148.437 195.131 162.225 195.131 179.234C195.131 196.242 208.919 210.031 225.928 210.031Z" fill="#22B05C"/>
<path d="M154.299 54.6694L183.36 39.6514C183.36 39.6514 191.105 118.293 250.727 164.658L219.49 180.798L154.299 54.6694Z" fill="#BCBE6C"/>
<path d="M166.665 48.2795L137.607 63.2976C137.607 63.2976 197.288 115.105 200.634 190.545L231.856 174.405L166.665 48.2795Z" fill="#BCBE6C"/>
<path d="M72.6975 210.388C89.7063 210.388 103.495 196.6 103.495 179.591C103.495 162.583 89.7063 148.794 72.6975 148.794C55.6887 148.794 41.9004 162.583 41.9004 179.591C41.9004 196.6 55.6887 210.388 72.6975 210.388Z" fill="#EBCF19"/>
<path d="M226.508 210.388C243.517 210.388 257.305 196.6 257.305 179.591C257.305 162.583 243.517 148.794 226.508 148.794C209.499 148.794 195.711 162.583 195.711 179.591C195.711 196.6 209.499 210.388 226.508 210.388Z" fill="#F9FB9D"/>
<path d="M82.9609 186.029V153.333C82.9609 153.333 156.399 182.551 224.939 150.883V186.029H82.9609Z" fill="#F9FB9D"/>
<path d="M82.9609 172.111V204.822C82.9609 204.822 156.399 175.589 224.939 207.257V172.111H82.9609Z" fill="#F9FB9D"/>
<path d="M72.5326 210.774C89.6089 210.774 103.452 196.931 103.452 179.855C103.452 162.779 89.6089 148.936 72.5326 148.936C55.4564 148.936 41.6133 162.779 41.6133 179.855C41.6133 196.931 55.4564 210.774 72.5326 210.774Z" fill="#6F9180"/>
<path d="M83.9006 174.053L56.2266 156.613C56.2266 156.613 120.101 110.077 129.857 35.1951L159.594 53.9338L83.9006 174.053Z" fill="#6F9180"/>
<path d="M72.123 166.631L99.7999 184.085C99.7999 184.085 114.215 106.367 177.542 65.2509L147.819 46.5122L72.123 166.631Z" fill="#6F9180"/>
<path d="M154.985 79.9729C171.993 79.9729 185.782 66.1846 185.782 49.1758C185.782 32.167 171.993 18.3787 154.985 18.3787C137.976 18.3787 124.188 32.167 124.188 49.1758C124.188 66.1846 137.976 79.9729 154.985 79.9729Z" fill="#BCBE6C"/>
<path d="M154.704 77.3316C169.97 77.3316 182.347 64.9555 182.347 49.6887C182.347 34.4218 169.97 22.0457 154.704 22.0457C139.437 22.0457 127.061 34.4218 127.061 49.6887C127.061 64.9555 139.437 77.3316 154.704 77.3316Z" fill="white"/>
<path d="M72.6996 208.077C87.9665 208.077 100.343 195.701 100.343 180.434C100.343 165.167 87.9665 152.791 72.6996 152.791C57.4328 152.791 45.0566 165.167 45.0566 180.434C45.0566 195.701 57.4328 208.077 72.6996 208.077Z" fill="white"/>
<path d="M227.055 208.08C242.322 208.08 254.698 195.704 254.698 180.437C254.698 165.17 242.322 152.794 227.055 152.794C211.788 152.794 199.412 165.17 199.412 180.437C199.412 195.704 211.788 208.08 227.055 208.08Z" fill="white"/>
<path d="M222.75 172.15L224.36 173.092L222.266 168.934L217.575 169.075L219.092 169.974L217.031 173.785C217.031 173.785 218.686 176.781 219.813 178.577C220.273 179.307 220.89 179.721 221.482 179.721H227.503V175.38H220.963L222.75 172.15Z" fill="#617E6F"/>
<path d="M228.292 167.243L232.855 167.525L235.042 163.37L233.515 164.244L231.215 160.58C231.215 160.58 227.79 160.54 225.679 160.642C224.816 160.684 224.151 161.014 223.861 161.529L220.893 166.767L224.67 168.906L227.894 163.226L229.825 166.375L228.292 167.243Z" fill="#617E6F"/>
<path d="M238.101 172.528L235.237 167.231L231.421 169.298L234.521 175.051L230.826 175.014L230.882 173.342L228.238 176.967L230.589 181.026L230.66 179.267H234.992C234.992 179.267 236.844 176.387 237.878 174.546C238.312 173.799 238.383 173.061 238.101 172.528Z" fill="#617E6F"/>
<path d="M59.748 180.446H61.2476V181.173H59.748V180.446Z" fill="#617E6F"/>
<path d="M82.2699 180.446V163.001H77.1963V167.347H77.9207V163.725H81.5455V180.446H77.9291V168.072H77.1963V180.446H74.6594V169.523H69.5858V180.446H67.0489V176.798H66.3245V180.446H62.6997V173.151H66.3245V176.048H67.0489V172.426H61.9753V180.446H61.248V181.173H84.5023V180.446H82.2699ZM70.3045 170.25H73.9294V180.446H70.313L70.3045 170.25ZM66.3161 176.048V176.798H67.0489V176.048" fill="#617E6F"/>
<path d="M80.3282 157.719L80.7228 160.069L81.4388 159.951L80.8609 156.419L77.315 157.025L77.4362 157.741L79.6912 157.361C75.1849 163.96 68.2749 168.534 60.4395 170.104L60.5804 170.817C68.6173 169.208 75.7021 164.51 80.3113 157.733L80.3282 157.719Z" fill="#617E6F"/>
<path d="M77.9275 167.347H77.2031V168.071H77.9275V167.347Z" fill="#617E6F"/>
<path d="M66.4284 173.151H62.6992V180.446H66.4284V173.151Z" fill="#617E6F"/>
<path d="M70.3125 170.25V180.445H74.0445L73.9373 170.25H70.3125Z" fill="#617E6F"/>
<path d="M81.8232 163.725H77.9277V180.674H81.8232V163.725Z" fill="#617E6F"/>
<path d="M156.661 30.902C157.274 31.2841 157.792 31.8011 158.176 32.4136C158.559 33.0261 158.798 33.718 158.874 34.4366C159.624 34.7875 160.468 34.8862 161.279 34.7179C162.091 34.5497 162.826 34.1235 163.375 33.503C163.924 32.8825 164.257 32.1011 164.326 31.2754C164.394 30.4497 164.193 29.6241 163.754 28.9218C163.314 28.2196 162.659 27.6784 161.887 27.3791C161.114 27.0798 160.265 27.0384 159.467 27.2612C158.669 27.484 157.965 27.9589 157.459 28.6151C156.953 29.2713 156.673 30.0736 156.661 30.902ZM154.147 38.7633C154.907 38.7639 155.65 38.539 156.282 38.117C156.914 37.6951 157.407 37.0951 157.698 36.393C157.99 35.6908 158.066 34.9181 157.918 34.1726C157.77 33.4271 157.404 32.7423 156.866 32.2048C156.329 31.6673 155.644 31.3014 154.898 31.1532C154.153 31.0051 153.38 31.0814 152.678 31.3725C151.976 31.6637 151.376 32.1565 150.954 32.7888C150.532 33.421 150.307 34.1642 150.308 34.9243C150.308 35.9424 150.712 36.9189 151.432 37.6389C152.152 38.3589 153.129 38.7633 154.147 38.7633ZM155.776 39.0255H152.515C151.211 39.027 149.962 39.5454 149.04 40.4669C148.119 41.3885 147.6 42.638 147.599 43.9413V47.941V48.003L147.881 48.0904C150.042 48.7868 152.296 49.1498 154.567 49.1672C158.18 49.1672 160.275 48.1383 160.404 48.0707L160.661 47.941H160.686V43.9413C160.685 42.6385 160.167 41.3894 159.246 40.4679C158.325 39.5464 157.076 39.0277 155.773 39.0255H155.776ZM162.129 35.0596H158.893C158.862 36.3086 158.337 37.4943 157.433 38.3574C158.638 38.7163 159.694 39.4539 160.446 40.4608C161.198 41.4677 161.606 42.6902 161.608 43.9469V45.1759C164.799 45.0603 166.639 44.1555 166.76 44.0935L167.017 43.9638H167.045V39.9782C167.044 38.6741 166.525 37.4239 165.603 36.5018C164.681 35.5797 163.431 35.061 162.126 35.0596H162.129ZM147.41 34.8002C148.133 34.8 148.841 34.5937 149.451 34.2055C149.638 33.0044 150.277 31.9204 151.238 31.1754C151.238 31.1049 151.238 31.0316 151.238 30.9612C151.238 30.2011 151.013 29.4579 150.592 28.8257C150.17 28.1934 149.57 27.7006 148.867 27.4094C148.165 27.1183 147.393 27.042 146.647 27.1901C145.902 27.3383 145.217 27.7043 144.679 28.2417C144.142 28.7792 143.776 29.464 143.628 30.2095C143.48 30.955 143.556 31.7277 143.847 32.4299C144.138 33.132 144.631 33.732 145.263 34.1539C145.895 34.5759 146.639 34.8008 147.399 34.8002H147.41ZM150.854 38.3574C149.958 37.4975 149.434 36.3208 149.394 35.0793C149.276 35.0793 149.158 35.0596 149.034 35.0596H145.778C144.474 35.061 143.224 35.5797 142.302 36.5018C141.38 37.4239 140.861 38.6741 140.859 39.9782V43.9638V44.023L141.141 44.1104C142.938 44.6828 144.798 45.0321 146.68 45.1505V43.9469C146.682 42.6901 147.089 41.4674 147.841 40.4604C148.593 39.4534 149.65 38.7159 150.854 38.3574Z" fill="#617E6F"/>
<path d="M143.93 59.7799L144.961 59.6812C144.993 59.9715 145.127 60.2411 145.339 60.4423C145.556 60.6156 145.829 60.7029 146.106 60.6875C146.38 60.7073 146.652 60.6305 146.875 60.4705C146.955 60.4118 147.02 60.3355 147.065 60.2474C147.11 60.1593 147.134 60.062 147.135 59.9631C147.139 59.8483 147.1 59.736 147.027 59.6474C146.922 59.5394 146.789 59.4607 146.644 59.4191C146.523 59.3768 146.238 59.3007 145.798 59.1908C145.365 59.1122 144.956 58.9347 144.603 58.6721C144.347 58.4544 144.18 58.1503 144.132 57.8174C144.085 57.4845 144.161 57.1458 144.347 56.8653C144.507 56.6271 144.735 56.4424 145.001 56.3354C145.329 56.2057 145.68 56.1434 146.032 56.1522C146.565 56.1122 147.093 56.2664 147.521 56.5863C147.686 56.7301 147.818 56.9077 147.909 57.1071C147.999 57.3065 148.046 57.523 148.045 57.742L146.985 57.7871C146.965 57.5657 146.865 57.3592 146.703 57.2064C146.506 57.0744 146.27 57.0119 146.032 57.0288C145.777 57.0149 145.524 57.0809 145.308 57.2177C145.255 57.2538 145.212 57.3026 145.182 57.3597C145.152 57.4168 145.138 57.4804 145.139 57.5447C145.139 57.6063 145.153 57.667 145.181 57.7223C145.208 57.7775 145.248 57.8257 145.297 57.8632C145.597 58.0395 145.928 58.158 146.272 58.2127C146.666 58.2946 147.049 58.4214 147.414 58.5904C147.652 58.713 147.853 58.8981 147.994 59.1259C148.143 59.3823 148.215 59.6756 148.203 59.9716C148.204 60.2719 148.116 60.5659 147.952 60.8172C147.783 61.081 147.536 61.2851 147.244 61.4006C146.88 61.5385 146.492 61.6037 146.103 61.5923C145.555 61.6291 145.012 61.4659 144.575 61.1329C144.193 60.7822 143.962 60.2973 143.93 59.7799Z" fill="#617E6F"/>
<path d="M148.843 59.5429C148.844 59.2041 148.929 58.8708 149.091 58.5733C149.247 58.2696 149.49 58.02 149.79 57.8574C150.101 57.6908 150.449 57.6054 150.802 57.6093C151.063 57.6012 151.323 57.6471 151.566 57.7441C151.808 57.8411 152.028 57.9871 152.211 58.1731C152.396 58.3576 152.541 58.5777 152.638 58.8199C152.735 59.0622 152.781 59.3216 152.775 59.5824C152.783 59.8463 152.737 60.1091 152.64 60.3547C152.543 60.6003 152.397 60.8238 152.211 61.0115C152.029 61.1983 151.809 61.3449 151.566 61.4419C151.323 61.539 151.063 61.5844 150.802 61.5752C150.456 61.5756 150.115 61.4945 149.807 61.3385C149.499 61.19 149.246 60.9471 149.085 60.6451C148.914 60.3037 148.83 59.9248 148.843 59.5429ZM149.875 59.5965C149.854 59.9081 149.949 60.2164 150.142 60.4618C150.223 60.5583 150.325 60.6354 150.44 60.6876C150.554 60.7397 150.679 60.7657 150.805 60.7634C150.93 60.7652 151.055 60.7391 151.169 60.6869C151.283 60.6348 151.384 60.5579 151.464 60.4618C151.663 60.2156 151.764 59.9042 151.746 59.588C151.76 59.2811 151.659 58.98 151.464 58.7424C151.384 58.6464 151.283 58.5695 151.169 58.5173C151.055 58.4652 150.93 58.439 150.805 58.4408C150.679 58.4386 150.554 58.4645 150.44 58.5167C150.325 58.5689 150.223 58.646 150.142 58.7424C149.952 58.9849 149.857 59.2887 149.875 59.5965Z" fill="#617E6F"/>
<path d="M156.869 58.8187L155.877 58.9991C155.856 58.8273 155.775 58.6684 155.648 58.5509C155.518 58.4476 155.355 58.3946 155.189 58.4015C155.076 58.3968 154.964 58.4177 154.86 58.4626C154.757 58.5075 154.665 58.5753 154.591 58.6608C154.418 58.9152 154.338 59.2222 154.366 59.529C154.335 59.8639 154.415 60.1997 154.594 60.4845C154.666 60.5759 154.759 60.649 154.865 60.698C154.971 60.7469 155.087 60.7704 155.203 60.7664C155.375 60.7735 155.543 60.7151 155.674 60.6029C155.817 60.4472 155.907 60.2497 155.93 60.0392L156.917 60.2083C156.846 60.6085 156.638 60.9714 156.328 61.2343C155.989 61.4813 155.576 61.6047 155.158 61.5838C154.911 61.5948 154.666 61.5536 154.436 61.4627C154.207 61.3719 153.999 61.2335 153.827 61.0567C153.505 60.6378 153.33 60.1239 153.33 59.5952C153.33 59.0665 153.505 58.5527 153.827 58.1337C154.002 57.9562 154.212 57.8177 154.443 57.7274C154.675 57.637 154.924 57.5968 155.172 57.6095C155.563 57.5901 155.949 57.6946 156.277 57.9082C156.57 58.1375 156.778 58.4579 156.869 58.8187Z" fill="#617E6F"/>
<path d="M157.631 57.1809V56.2507H158.637V57.1809H157.631ZM157.631 61.4963V57.6967H158.637V61.4963H157.631Z" fill="#617E6F"/>
<path d="M160.419 58.8554L159.506 58.6919C159.581 58.3658 159.769 58.0765 160.036 57.8745C160.376 57.6742 160.769 57.5819 161.163 57.6095C161.505 57.5907 161.848 57.6455 162.167 57.7702C162.36 57.852 162.522 57.9932 162.629 58.1733C162.741 58.4601 162.787 58.7683 162.764 59.0753V60.2479C162.759 60.495 162.775 60.7421 162.812 60.9864C162.851 61.1634 162.911 61.3348 162.993 61.4965H161.998C161.972 61.4289 161.938 61.3302 161.902 61.2147C161.885 61.1555 161.874 61.116 161.865 61.0963C161.706 61.2534 161.52 61.3804 161.316 61.4712C161.117 61.5561 160.903 61.5993 160.687 61.598C160.349 61.616 160.018 61.5017 159.762 61.2795C159.652 61.1768 159.565 61.0518 159.507 60.9128C159.448 60.7738 159.42 60.624 159.424 60.4733C159.424 60.2749 159.478 60.08 159.579 59.9096C159.681 59.7409 159.832 59.6064 160.011 59.5234C160.267 59.4127 160.536 59.3342 160.811 59.2895C161.143 59.2374 161.47 59.1543 161.786 59.0414V58.9428C161.794 58.8674 161.785 58.7913 161.76 58.7197C161.736 58.6481 161.695 58.5828 161.643 58.5284C161.482 58.428 161.292 58.3843 161.104 58.4044C160.956 58.3962 160.81 58.4336 160.684 58.5115C160.563 58.5969 160.471 58.7167 160.419 58.8554ZM161.764 59.6728C161.563 59.7337 161.358 59.7845 161.152 59.825C160.962 59.8543 160.777 59.9133 160.605 59.9998C160.545 60.0373 160.495 60.0896 160.46 60.1517C160.426 60.2139 160.408 60.2839 160.408 60.355C160.408 60.4236 160.422 60.4915 160.449 60.5545C160.476 60.6176 160.516 60.6744 160.566 60.7214C160.674 60.8228 160.818 60.8775 160.966 60.8736C161.153 60.8716 161.335 60.8093 161.485 60.696C161.599 60.6146 161.683 60.4977 161.724 60.3634C161.759 60.2023 161.772 60.0375 161.764 59.873V59.6728Z" fill="#617E6F"/>
<path d="M163.73 61.4963V56.2507H164.737V61.4963H163.73Z" fill="#617E6F"/>
<path d="M53.9043 193.133V187.887H57.7941V188.775H54.9754V189.936H57.6081V190.821H54.9754V192.259H57.9069V193.141L53.9043 193.133Z" fill="#617E6F"/>
<path d="M62.0984 190.458L61.1091 190.635C61.0887 190.463 61.0078 190.304 60.8808 190.187C60.7505 190.084 60.5874 190.031 60.4213 190.038C60.3082 190.033 60.1955 190.054 60.0916 190.099C59.9877 190.144 59.8952 190.211 59.8209 190.297C59.6483 190.552 59.5696 190.859 59.5983 191.165C59.5675 191.5 59.6477 191.836 59.8266 192.121C59.8986 192.212 59.9913 192.286 60.0971 192.335C60.203 192.384 60.3189 192.407 60.4354 192.402C60.6066 192.41 60.7741 192.351 60.9033 192.239C61.0493 192.085 61.1405 191.887 61.1626 191.675L62.1492 191.844C62.0783 192.245 61.8699 192.607 61.5601 192.87C61.2221 193.118 60.8089 193.242 60.3903 193.22C60.1439 193.231 59.8978 193.19 59.6685 193.099C59.4391 193.008 59.2317 192.87 59.0599 192.693C58.7374 192.274 58.5625 191.76 58.5625 191.231C58.5625 190.703 58.7374 190.189 59.0599 189.77C59.2342 189.592 59.4441 189.454 59.6759 189.363C59.9077 189.273 60.156 189.233 60.4044 189.246C60.7955 189.226 61.1826 189.331 61.5093 189.547C61.8026 189.776 62.0101 190.096 62.0984 190.458Z" fill="#617E6F"/>
<path d="M62.6284 191.179C62.6293 190.84 62.7145 190.507 62.8764 190.21C63.0319 189.906 63.2756 189.656 63.5754 189.494C63.8865 189.327 64.2346 189.242 64.5874 189.246C64.8484 189.237 65.1084 189.283 65.3509 189.38C65.5934 189.477 65.8133 189.623 65.9967 189.809C66.3541 190.197 66.5525 190.704 66.5525 191.231C66.5525 191.758 66.3541 192.266 65.9967 192.653C65.8143 192.841 65.5946 192.988 65.3519 193.085C65.1091 193.182 64.8486 193.227 64.5874 193.217C64.2417 193.217 63.9008 193.136 63.5924 192.98C63.2847 192.831 63.0321 192.588 62.8708 192.287C62.6982 191.944 62.6149 191.563 62.6284 191.179ZM63.66 191.233C63.6431 191.546 63.7436 191.855 63.9419 192.098C64.0229 192.194 64.1244 192.272 64.239 192.324C64.3536 192.376 64.4784 192.402 64.6043 192.4C64.7297 192.401 64.854 192.375 64.968 192.323C65.0821 192.271 65.1832 192.194 65.2639 192.098C65.4579 191.85 65.5532 191.539 65.5316 191.224C65.5489 190.919 65.4536 190.618 65.2639 190.379C65.1832 190.283 65.0821 190.206 64.968 190.154C64.854 190.101 64.7297 190.075 64.6043 190.077C64.4784 190.075 64.3536 190.101 64.239 190.153C64.1244 190.205 64.0229 190.282 63.9419 190.379C63.7483 190.62 63.65 190.924 63.6657 191.233H63.66Z" fill="#617E6F"/>
<path d="M70.7943 193.133H69.7908V191.193C69.8046 190.927 69.7828 190.66 69.726 190.399C69.6874 190.284 69.6133 190.186 69.5146 190.117C69.4126 190.047 69.2912 190.012 69.1679 190.015C68.9998 190.013 68.8353 190.063 68.6971 190.159C68.564 190.251 68.4649 190.385 68.4153 190.54C68.3513 190.826 68.3257 191.12 68.3392 191.413V193.133H67.3301V189.333H68.2659V189.897C68.4708 189.612 68.7664 189.405 69.1044 189.309C69.4423 189.214 69.8026 189.236 70.1262 189.373C70.2892 189.438 70.4328 189.544 70.5434 189.68C70.638 189.804 70.7052 189.948 70.7407 190.1C70.7826 190.323 70.8005 190.55 70.7943 190.776V193.133Z" fill="#617E6F"/>
<path d="M71.5845 191.179C71.5858 190.841 71.67 190.508 71.8297 190.209C71.9851 189.906 72.2288 189.656 72.5287 189.493C72.8398 189.327 73.1878 189.242 73.5406 189.245C73.8016 189.238 74.0614 189.284 74.3038 189.381C74.5462 189.478 74.7661 189.624 74.95 189.809C75.1314 189.995 75.2735 190.216 75.3679 190.458C75.4623 190.7 75.5071 190.959 75.4996 191.218C75.506 191.482 75.4594 191.745 75.3626 191.99C75.2657 192.236 75.1206 192.459 74.9359 192.648C74.7532 192.834 74.5334 192.981 74.2907 193.078C74.048 193.175 73.7878 193.221 73.5265 193.211C73.1799 193.212 72.838 193.131 72.5287 192.975C72.2216 192.825 71.9693 192.582 71.8071 192.281C71.6435 191.938 71.5671 191.559 71.5845 191.179ZM72.6133 191.233C72.5925 191.544 72.6879 191.853 72.8811 192.098C72.9636 192.192 73.0654 192.268 73.1797 192.32C73.2939 192.372 73.418 192.399 73.5434 192.399C73.6689 192.399 73.793 192.372 73.9072 192.32C74.0215 192.268 74.1233 192.192 74.2058 192.098C74.3991 191.849 74.4935 191.538 74.4708 191.224C74.4888 190.919 74.3946 190.619 74.2058 190.379C74.1233 190.284 74.0215 190.208 73.9072 190.156C73.793 190.104 73.6689 190.078 73.5434 190.078C73.418 190.078 73.2939 190.104 73.1797 190.156C73.0654 190.208 72.9636 190.284 72.8811 190.379C72.6905 190.621 72.5953 190.925 72.6133 191.233Z" fill="#617E6F"/>
<path d="M76.2188 189.333H77.1433V189.851C77.2808 189.666 77.4596 189.514 77.6655 189.409C77.8713 189.304 78.0988 189.248 78.33 189.245C78.5501 189.24 78.7679 189.292 78.9613 189.398C79.1486 189.504 79.302 189.662 79.4039 189.851C79.5504 189.665 79.7336 189.511 79.9423 189.398C80.1334 189.297 80.3463 189.245 80.5624 189.245C80.8094 189.238 81.0538 189.298 81.2699 189.417C81.4653 189.532 81.6177 189.707 81.7039 189.916C81.7862 190.17 81.8216 190.436 81.8082 190.703V193.132H80.802V190.962C80.8247 190.714 80.789 190.464 80.6977 190.232C80.6519 190.161 80.5881 190.104 80.5128 190.066C80.4375 190.027 80.3535 190.01 80.2692 190.015C80.1266 190.016 79.9879 190.062 79.8718 190.145C79.7428 190.237 79.6486 190.37 79.604 190.522C79.5367 190.779 79.5082 191.044 79.5194 191.309V193.132H78.516V191.049C78.5269 190.81 78.5089 190.569 78.4624 190.333C78.4334 190.238 78.3753 190.154 78.2961 190.094C78.2038 190.038 78.0969 190.01 77.9889 190.015C77.8401 190.013 77.6944 190.058 77.5717 190.142C77.4447 190.229 77.3505 190.356 77.304 190.503C77.2384 190.758 77.2108 191.022 77.2222 191.286V193.132H76.2188V189.333Z" fill="#617E6F"/>
<path d="M82.8066 188.817V187.887H83.8129V188.817H82.8066ZM82.8066 193.133V189.333H83.8129V193.133H82.8066Z" fill="#617E6F"/>
<path d="M88.1595 190.458L87.1673 190.635C87.1489 190.463 87.0688 190.304 86.9418 190.187C86.8115 190.084 86.6485 190.031 86.4824 190.038C86.3693 190.033 86.2566 190.054 86.1527 190.099C86.0488 190.144 85.9562 190.211 85.882 190.297C85.7094 190.552 85.6307 190.859 85.6593 191.165C85.6292 191.5 85.7083 191.835 85.8848 192.121C85.9577 192.212 86.051 192.285 86.1572 192.334C86.2634 192.383 86.3796 192.406 86.4965 192.402C86.6676 192.41 86.8351 192.351 86.9644 192.239C87.1094 192.084 87.1995 191.886 87.2209 191.675L88.2102 191.844C88.1395 192.245 87.93 192.608 87.6183 192.87C87.2807 193.119 86.8672 193.242 86.4486 193.22C86.2026 193.231 85.957 193.19 85.7281 193.099C85.4993 193.008 85.2923 192.87 85.1209 192.693C84.7706 192.291 84.5924 191.768 84.6249 191.236C84.5929 190.701 84.7709 190.175 85.1209 189.77C85.296 189.593 85.5065 189.454 85.7387 189.364C85.9708 189.274 86.2195 189.233 86.4683 189.246C86.8585 189.226 87.2447 189.331 87.5704 189.547C87.8643 189.775 88.072 190.096 88.1595 190.458Z" fill="#617E6F"/>
<path d="M206.893 190.545V185.3H210.782V186.185H207.964V187.349H210.596V188.234H207.964V189.66H210.892V190.545H206.893Z" fill="#617E6F"/>
<path d="M215.231 190.545H214.225V188.594C214.238 188.327 214.217 188.058 214.16 187.797C214.122 187.683 214.049 187.584 213.951 187.515C213.847 187.447 213.725 187.413 213.602 187.416C213.435 187.414 213.271 187.464 213.134 187.56C213 187.65 212.901 187.783 212.852 187.938C212.788 188.224 212.762 188.518 212.776 188.811V190.534H211.77V186.742H212.703V187.306C212.908 187.022 213.204 186.816 213.541 186.72C213.879 186.624 214.239 186.645 214.563 186.779C214.726 186.844 214.87 186.95 214.98 187.086C215.076 187.211 215.143 187.355 215.177 187.509C215.22 187.732 215.239 187.959 215.234 188.186L215.231 190.545Z" fill="#617E6F"/>
<path d="M217.286 190.545L215.756 186.743H216.813L217.526 188.685L217.735 189.33C217.791 189.167 217.825 189.048 217.839 189.006C217.873 188.899 217.907 188.792 217.946 188.685L218.668 186.743H219.702L218.194 190.545H217.286Z" fill="#617E6F"/>
<path d="M220.326 186.23V185.3H221.33V186.23H220.326ZM220.326 190.545V186.743H221.33V190.545H220.326Z" fill="#617E6F"/>
<path d="M223.327 190.545H222.32V186.743H223.253V187.284C223.362 187.089 223.509 186.917 223.685 186.779C223.814 186.697 223.965 186.655 224.119 186.658C224.353 186.659 224.582 186.724 224.781 186.847L224.471 187.724C224.332 187.624 224.168 187.568 223.997 187.56C223.868 187.556 223.742 187.597 223.639 187.676C223.522 187.789 223.442 187.936 223.408 188.096C223.337 188.516 223.31 188.943 223.327 189.37V190.545Z" fill="#617E6F"/>
<path d="M224.98 188.595C224.982 188.255 225.067 187.921 225.228 187.622C225.384 187.319 225.627 187.071 225.927 186.909C226.237 186.741 226.586 186.656 226.939 186.661C227.2 186.652 227.46 186.698 227.702 186.795C227.945 186.892 228.165 187.038 228.348 187.225C228.533 187.409 228.678 187.629 228.775 187.871C228.872 188.114 228.918 188.373 228.912 188.634C228.919 188.898 228.873 189.161 228.776 189.406C228.679 189.652 228.534 189.875 228.348 190.063C228.165 190.25 227.945 190.397 227.703 190.494C227.46 190.591 227.2 190.636 226.939 190.627C226.593 190.627 226.252 190.546 225.944 190.39C225.636 190.243 225.383 190.001 225.222 189.699C225.051 189.357 224.968 188.977 224.98 188.595ZM226.011 188.648C225.991 188.96 226.086 189.268 226.279 189.513C226.36 189.609 226.462 189.686 226.576 189.738C226.691 189.789 226.816 189.815 226.941 189.812C227.067 189.814 227.191 189.789 227.305 189.737C227.419 189.685 227.52 189.609 227.601 189.513C227.795 189.265 227.89 188.954 227.869 188.64C227.885 188.335 227.79 188.034 227.601 187.794C227.52 187.699 227.419 187.622 227.305 187.571C227.191 187.519 227.067 187.493 226.941 187.495C226.816 187.493 226.691 187.518 226.576 187.57C226.462 187.622 226.36 187.698 226.279 187.794C226.094 188.038 226.003 188.34 226.022 188.645L226.011 188.648Z" fill="#617E6F"/>
<path d="M233.146 190.545H232.143V188.594C232.156 188.327 232.135 188.058 232.078 187.797C232.04 187.683 231.967 187.584 231.869 187.515C231.765 187.448 231.643 187.413 231.52 187.416C231.352 187.414 231.187 187.465 231.049 187.56C230.915 187.65 230.815 187.783 230.767 187.938C230.7 188.224 230.674 188.518 230.688 188.811V190.534H229.688V186.742H230.623V187.306C230.829 187.022 231.125 186.816 231.462 186.72C231.8 186.624 232.159 186.645 232.484 186.779C232.646 186.845 232.789 186.951 232.901 187.086C232.995 187.212 233.063 187.356 233.098 187.509C233.14 187.732 233.158 187.959 233.152 188.186L233.146 190.545Z" fill="#617E6F"/>
<path d="M234.091 186.743H235.019V187.264C235.156 187.078 235.334 186.926 235.54 186.821C235.746 186.716 235.974 186.66 236.205 186.658C236.425 186.653 236.643 186.704 236.837 186.807C237.023 186.915 237.176 187.074 237.276 187.264C237.425 187.078 237.609 186.923 237.818 186.807C238.009 186.709 238.222 186.658 238.438 186.658C238.685 186.65 238.929 186.708 239.145 186.827C239.341 186.941 239.493 187.117 239.579 187.326C239.662 187.581 239.697 187.848 239.684 188.115V190.545H238.677V188.372C238.7 188.124 238.664 187.874 238.573 187.642C238.527 187.571 238.463 187.514 238.388 187.476C238.313 187.439 238.229 187.422 238.145 187.427C238.002 187.428 237.863 187.473 237.747 187.557C237.613 187.648 237.514 187.781 237.465 187.935C237.401 188.191 237.373 188.455 237.384 188.718V190.545H236.38V188.462C236.391 188.222 236.373 187.982 236.327 187.746C236.298 187.65 236.24 187.566 236.16 187.506C236.069 187.449 235.961 187.421 235.853 187.427C235.704 187.426 235.558 187.469 235.433 187.551C235.307 187.64 235.214 187.768 235.168 187.915C235.102 188.171 235.075 188.435 235.086 188.699V190.545H234.08L234.091 186.743Z" fill="#617E6F"/>
<path d="M242.885 189.336L243.886 189.502C243.781 189.843 243.567 190.14 243.277 190.348C242.966 190.546 242.602 190.645 242.234 190.63C241.955 190.652 241.674 190.604 241.418 190.491C241.162 190.378 240.937 190.202 240.765 189.981C240.503 189.597 240.372 189.138 240.391 188.673C240.358 188.135 240.535 187.605 240.884 187.194C241.041 187.02 241.234 186.882 241.45 186.789C241.665 186.697 241.898 186.652 242.133 186.658C242.384 186.647 242.634 186.691 242.866 186.789C243.097 186.886 243.304 187.034 243.471 187.222C243.798 187.598 243.954 188.169 243.939 188.936H241.419C241.412 189.19 241.499 189.438 241.665 189.632C241.736 189.711 241.823 189.774 241.92 189.817C242.017 189.86 242.122 189.883 242.228 189.883C242.373 189.886 242.514 189.84 242.629 189.753C242.755 189.643 242.844 189.498 242.885 189.336ZM242.936 188.313C242.947 188.071 242.867 187.834 242.71 187.65C242.645 187.577 242.564 187.519 242.474 187.48C242.384 187.44 242.287 187.42 242.189 187.422C242.086 187.419 241.984 187.439 241.89 187.481C241.796 187.522 241.712 187.584 241.645 187.661C241.494 187.843 241.418 188.076 241.433 188.313H242.936Z" fill="#617E6F"/>
<path d="M248.213 190.545H247.21V188.594C247.224 188.327 247.202 188.058 247.145 187.797C247.107 187.683 247.034 187.584 246.936 187.515C246.832 187.448 246.711 187.413 246.587 187.416C246.419 187.414 246.255 187.465 246.116 187.56C245.982 187.65 245.883 187.783 245.834 187.938C245.768 188.224 245.741 188.518 245.755 188.811V190.534H244.752V186.742H245.685V187.306C245.891 187.022 246.186 186.816 246.524 186.72C246.861 186.624 247.221 186.645 247.545 186.779C247.708 186.845 247.851 186.951 247.962 187.086C248.057 187.212 248.124 187.356 248.16 187.509C248.202 187.732 248.22 187.959 248.213 188.186V190.545Z" fill="#617E6F"/>
<path d="M250.981 186.743V187.546H250.294V189.076C250.287 189.257 250.293 189.438 250.313 189.618C250.325 189.67 250.357 189.716 250.401 189.747C250.452 189.78 250.512 189.797 250.573 189.795C250.711 189.786 250.848 189.753 250.976 189.699L251.063 190.48C250.811 190.583 250.541 190.634 250.268 190.63C250.1 190.631 249.934 190.601 249.778 190.539C249.651 190.492 249.539 190.41 249.456 190.303C249.38 190.184 249.332 190.05 249.316 189.911C249.288 189.676 249.277 189.44 249.285 189.203V187.546H248.822V186.743H249.285V185.99L250.294 185.401V186.743H250.981Z" fill="#617E6F"/>
<path d="M127.32 130.512L128.352 130.414C128.384 130.704 128.518 130.974 128.73 131.175C128.946 131.348 129.219 131.435 129.496 131.42C129.771 131.439 130.044 131.363 130.269 131.203C130.348 131.144 130.412 131.067 130.457 130.979C130.502 130.892 130.526 130.794 130.528 130.696C130.531 130.581 130.492 130.468 130.418 130.38C130.313 130.273 130.182 130.194 130.038 130.152C129.914 130.109 129.629 130.033 129.192 129.923C128.759 129.845 128.35 129.667 127.997 129.405C127.843 129.275 127.72 129.113 127.637 128.93C127.553 128.748 127.51 128.549 127.512 128.348C127.512 128.081 127.592 127.82 127.74 127.598C127.9 127.36 128.128 127.175 128.394 127.068C128.723 126.939 129.075 126.876 129.429 126.885C129.96 126.845 130.488 126.999 130.914 127.319C131.079 127.463 131.212 127.64 131.302 127.84C131.392 128.039 131.439 128.256 131.438 128.475L130.379 128.52C130.36 128.298 130.259 128.091 130.097 127.939C129.899 127.807 129.663 127.744 129.426 127.761C129.171 127.748 128.918 127.814 128.701 127.95C128.649 127.987 128.606 128.036 128.577 128.093C128.548 128.15 128.534 128.213 128.535 128.277C128.535 128.339 128.549 128.4 128.576 128.455C128.604 128.511 128.644 128.559 128.693 128.596C128.992 128.773 129.322 128.891 129.665 128.945C130.06 129.027 130.444 129.154 130.81 129.323C131.047 129.445 131.247 129.629 131.388 129.856C131.533 130.115 131.606 130.409 131.599 130.707C131.592 131.004 131.505 131.294 131.348 131.547C131.178 131.811 130.93 132.015 130.638 132.13C130.274 132.268 129.886 132.333 129.496 132.322C128.948 132.359 128.405 132.196 127.969 131.863C127.586 131.513 127.354 131.029 127.32 130.512Z" fill="#617E6F"/>
<path d="M134.978 132.22V131.657C134.841 131.86 134.653 132.025 134.434 132.136C134.214 132.252 133.97 132.312 133.721 132.311C133.481 132.316 133.244 132.258 133.033 132.144C132.838 132.04 132.683 131.873 132.594 131.671C132.489 131.402 132.442 131.114 132.455 130.825V128.421H133.462V130.166C133.447 130.495 133.466 130.824 133.518 131.149C133.553 131.263 133.624 131.362 133.721 131.431C133.83 131.506 133.961 131.544 134.093 131.538C134.257 131.54 134.418 131.491 134.553 131.397C134.683 131.314 134.782 131.19 134.834 131.045C134.904 130.709 134.929 130.365 134.911 130.022V128.418H135.917V132.22H134.978Z" fill="#617E6F"/>
<path d="M136.594 131.135L137.603 130.983C137.633 131.158 137.725 131.316 137.862 131.429C138.028 131.541 138.226 131.595 138.426 131.581C138.632 131.595 138.836 131.544 139.012 131.437C139.056 131.405 139.092 131.363 139.115 131.313C139.138 131.264 139.148 131.209 139.145 131.155C139.145 131.084 139.119 131.016 139.071 130.963C138.97 130.896 138.856 130.851 138.736 130.831C138.201 130.746 137.681 130.582 137.194 130.343C137.053 130.253 136.937 130.128 136.858 129.98C136.779 129.831 136.739 129.666 136.743 129.498C136.741 129.339 136.775 129.182 136.842 129.039C136.91 128.895 137.009 128.769 137.132 128.669C137.483 128.416 137.913 128.296 138.344 128.331C138.747 128.303 139.149 128.391 139.503 128.584C139.762 128.764 139.947 129.031 140.024 129.337L139.077 129.512C139.042 129.375 138.96 129.256 138.846 129.174C138.7 129.086 138.531 129.045 138.361 129.055C138.167 129.042 137.972 129.079 137.797 129.165C137.763 129.186 137.734 129.216 137.713 129.252C137.693 129.287 137.682 129.327 137.682 129.368C137.682 129.405 137.692 129.44 137.71 129.472C137.727 129.504 137.753 129.531 137.783 129.551C138.082 129.686 138.398 129.781 138.722 129.833C139.126 129.9 139.51 130.053 139.849 130.281C139.955 130.374 140.039 130.49 140.094 130.62C140.148 130.75 140.173 130.89 140.165 131.031C140.164 131.204 140.124 131.374 140.049 131.529C139.973 131.684 139.864 131.82 139.728 131.927C139.357 132.203 138.899 132.336 138.437 132.302C138.005 132.325 137.577 132.216 137.208 131.989C136.904 131.791 136.685 131.487 136.594 131.135Z" fill="#617E6F"/>
<path d="M142.763 128.421V129.221H142.078V130.752C142.071 130.933 142.078 131.115 142.098 131.296C142.111 131.347 142.142 131.393 142.185 131.423C142.236 131.458 142.296 131.476 142.357 131.473C142.496 131.463 142.632 131.429 142.76 131.375L142.848 132.156C142.596 132.26 142.325 132.311 142.053 132.305C141.885 132.308 141.718 132.278 141.562 132.215C141.434 132.169 141.322 132.087 141.241 131.978C141.164 131.86 141.116 131.726 141.1 131.586C141.074 131.351 141.063 131.115 141.069 130.879V129.221H140.615V128.421H141.078V127.665L142.087 127.079V128.421H142.763Z" fill="#617E6F"/>
<path d="M144.217 129.579L143.303 129.416C143.377 129.089 143.565 128.799 143.833 128.598C144.174 128.398 144.567 128.306 144.961 128.333C145.302 128.315 145.643 128.369 145.961 128.494C146.155 128.576 146.318 128.717 146.426 128.897C146.535 129.185 146.581 129.492 146.559 129.799V130.972C146.552 131.219 146.568 131.466 146.607 131.71C146.644 131.888 146.704 132.059 146.787 132.22H145.792C145.767 132.153 145.733 132.054 145.696 131.939C145.679 131.877 145.665 131.84 145.66 131.82C145.497 131.979 145.306 132.106 145.096 132.195C144.898 132.279 144.685 132.322 144.47 132.319C144.132 132.339 143.8 132.224 143.546 132.001C143.435 131.898 143.348 131.774 143.29 131.635C143.231 131.497 143.203 131.347 143.207 131.197C143.206 130.999 143.26 130.803 143.362 130.633C143.465 130.465 143.615 130.33 143.794 130.247C144.048 130.135 144.317 130.057 144.591 130.013C144.925 129.962 145.252 129.878 145.57 129.765V129.667C145.577 129.591 145.568 129.515 145.544 129.444C145.519 129.372 145.479 129.307 145.426 129.252C145.264 129.153 145.074 129.109 144.885 129.128C144.735 129.111 144.584 129.15 144.462 129.239C144.34 129.327 144.256 129.457 144.225 129.605L144.217 129.579ZM145.561 130.397C145.431 130.439 145.228 130.49 144.949 130.549C144.759 130.578 144.575 130.637 144.403 130.724C144.342 130.761 144.292 130.813 144.258 130.876C144.223 130.938 144.205 131.008 144.205 131.079C144.204 131.148 144.218 131.216 144.245 131.279C144.272 131.342 144.313 131.399 144.363 131.445C144.471 131.547 144.615 131.601 144.763 131.597C144.951 131.595 145.133 131.533 145.282 131.42C145.395 131.338 145.479 131.221 145.522 131.087C145.554 130.926 145.568 130.761 145.561 130.597V130.397Z" fill="#617E6F"/>
<path d="M147.539 127.905V126.975H148.545V127.905H147.539ZM147.539 132.22V128.421H148.545V132.22H147.539Z" fill="#617E6F"/>
<path d="M153.034 132.221H152.027V130.281C152.041 130.014 152.019 129.746 151.963 129.484C151.925 129.37 151.852 129.271 151.754 129.202C151.651 129.132 151.529 129.097 151.404 129.1C151.237 129.098 151.074 129.148 150.937 129.244C150.802 129.336 150.703 129.47 150.655 129.625C150.591 129.91 150.565 130.203 150.579 130.496V132.221H149.572V128.421H150.505V128.985C150.647 128.784 150.835 128.62 151.053 128.508C151.272 128.396 151.514 128.338 151.76 128.339C151.968 128.336 152.174 128.378 152.366 128.46C152.529 128.523 152.673 128.628 152.783 128.765C152.879 128.89 152.946 129.034 152.98 129.188C153.023 129.41 153.042 129.637 153.036 129.864L153.034 132.221Z" fill="#617E6F"/>
<path d="M154.804 129.579L153.89 129.416C153.966 129.09 154.153 128.8 154.42 128.598C154.761 128.398 155.154 128.306 155.548 128.333C155.89 128.314 156.232 128.369 156.551 128.494C156.745 128.575 156.907 128.716 157.013 128.897C157.125 129.184 157.171 129.492 157.149 129.799V130.972C157.143 131.219 157.159 131.466 157.197 131.71C157.236 131.887 157.297 132.058 157.377 132.22H156.382C156.357 132.153 156.326 132.054 156.286 131.939C156.276 131.898 156.264 131.859 156.25 131.82C156.087 131.979 155.896 132.106 155.686 132.195C155.488 132.279 155.275 132.321 155.06 132.319C154.722 132.339 154.39 132.224 154.136 132.001C154.025 131.898 153.938 131.774 153.879 131.635C153.821 131.497 153.793 131.347 153.797 131.197C153.796 130.999 153.849 130.804 153.949 130.633C154.053 130.466 154.203 130.332 154.381 130.247C154.636 130.135 154.905 130.057 155.181 130.013C155.514 129.961 155.842 129.878 156.159 129.765V129.667C156.167 129.591 156.158 129.515 156.133 129.444C156.109 129.372 156.068 129.307 156.016 129.252C155.854 129.153 155.664 129.109 155.474 129.128C155.325 129.111 155.174 129.15 155.051 129.238C154.929 129.326 154.843 129.457 154.812 129.605L154.804 129.579ZM156.151 130.397C156.021 130.439 155.815 130.49 155.536 130.549C155.346 130.579 155.162 130.638 154.99 130.724C154.93 130.762 154.88 130.814 154.846 130.876C154.811 130.938 154.793 131.008 154.792 131.079C154.792 131.147 154.806 131.215 154.833 131.278C154.86 131.341 154.9 131.398 154.95 131.445C155.058 131.547 155.202 131.601 155.35 131.597C155.539 131.595 155.721 131.533 155.872 131.42C155.987 131.34 156.074 131.226 156.12 131.093C156.153 130.932 156.166 130.767 156.159 130.602L156.151 130.397Z" fill="#617E6F"/>
<path d="M158.094 132.22V126.975H159.1V128.863C159.233 128.699 159.401 128.566 159.591 128.474C159.782 128.382 159.991 128.334 160.202 128.333C160.419 128.329 160.634 128.371 160.833 128.458C161.032 128.546 161.209 128.675 161.352 128.838C161.679 129.245 161.841 129.76 161.806 130.281C161.841 130.821 161.675 131.355 161.341 131.781C161.204 131.947 161.032 132.08 160.837 132.171C160.641 132.261 160.429 132.307 160.213 132.305C159.989 132.303 159.769 132.248 159.571 132.144C159.354 132.029 159.167 131.864 159.027 131.662V132.226L158.094 132.22ZM159.094 130.247C159.073 130.549 159.138 130.851 159.28 131.118C159.35 131.241 159.45 131.343 159.572 131.414C159.694 131.485 159.833 131.522 159.974 131.521C160.083 131.521 160.191 131.495 160.289 131.446C160.386 131.398 160.472 131.327 160.538 131.24C160.714 130.976 160.797 130.66 160.772 130.343C160.8 130.012 160.716 129.68 160.535 129.402C160.462 129.313 160.37 129.241 160.266 129.192C160.162 129.142 160.048 129.117 159.933 129.117C159.818 129.117 159.704 129.142 159.6 129.192C159.496 129.241 159.404 129.313 159.331 129.402C159.152 129.646 159.065 129.945 159.086 130.247H159.094Z" fill="#617E6F"/>
<path d="M162.604 127.905V126.975H163.61V127.905H162.604ZM162.604 132.22V128.421H163.61V132.22H162.604Z" fill="#617E6F"/>
<path d="M164.641 132.22V126.975H165.647V132.22H164.641Z" fill="#617E6F"/>
<path d="M166.678 127.905V126.975H167.676V127.905H166.678ZM166.678 132.22V128.421H167.676V132.22H166.678Z" fill="#617E6F"/>
<path d="M170.455 128.421V129.221H169.767V130.752C169.762 130.933 169.769 131.115 169.787 131.296C169.802 131.347 169.834 131.392 169.877 131.423C169.927 131.457 169.986 131.475 170.046 131.473C170.186 131.462 170.323 131.429 170.452 131.375L170.537 132.156C170.285 132.26 170.014 132.311 169.742 132.305C169.575 132.309 169.409 132.278 169.254 132.215C169.126 132.169 169.014 132.087 168.933 131.978C168.857 131.86 168.808 131.726 168.792 131.586C168.763 131.352 168.751 131.115 168.758 130.879V129.221H168.299V128.421H168.758V127.665L169.767 127.079V128.421H170.455Z" fill="#617E6F"/>
<path d="M170.678 128.421H171.746L172.656 131.118L173.544 128.421H174.584L173.243 132.085L173.003 132.747C172.938 132.926 172.853 133.096 172.749 133.255C172.674 133.366 172.579 133.461 172.468 133.537C172.351 133.615 172.221 133.674 172.084 133.709C171.916 133.75 171.744 133.77 171.571 133.768C171.382 133.768 171.193 133.748 171.008 133.709L170.917 132.919C171.057 132.949 171.2 132.965 171.343 132.967C171.439 132.975 171.536 132.96 171.626 132.924C171.716 132.888 171.796 132.833 171.862 132.761C171.983 132.606 172.072 132.428 172.121 132.237L170.678 128.421Z" fill="#617E6F"/>
<defs>
<filter id="filter0_f_1180_230" x="0.315625" y="192.994" width="293.367" height="31.2064" filterUnits="userSpaceOnUse" color-interpolation-filters="sRGB">
<feFlood flood-opacity="0" result="BackgroundImageFix"/>
<feBlend mode="normal" in="SourceGraphic" in2="BackgroundImageFix" result="shape"/>
<feGaussianBlur stdDeviation="4.1" result="effect1_foregroundBlur_1180_230"/>
</filter>
</defs>
</svg>
